<svg xmlns="http://www.w3.org/2000/svg" xmlns:xlink="http://www.w3.org/1999/xlink" width="500" zoomAndPan="magnify" viewBox="0 0 375 374.999991" height="500" preserveAspectRatio="xMidYMid meet" version="1.0"><defs><clipPath id="e56d1f5e75"><path d="M 25.417969 141.394531 L 349.417969 141.394531 L 349.417969 145.894531 L 25.417969 145.894531 Z M 25.417969 141.394531 " clip-rule="nonzero"/></clipPath><clipPath id="a9b63f9cad"><path d="M 112.234375 141.394531 L 230.734375 141.394531 L 230.734375 145.894531 L 112.234375 145.894531 Z M 112.234375 141.394531 " clip-rule="nonzero"/></clipPath><clipPath id="9fd630f580"><path d="M 25.417969 223 L 349.417969 223 L 349.417969 227.445312 L 25.417969 227.445312 Z M 25.417969 223 " clip-rule="nonzero"/></clipPath><clipPath id="443b19455c"><path d="M 112.234375 223 L 230.734375 223 L 230.734375 227.445312 L 112.234375 227.445312 Z M 112.234375 223 " clip-rule="nonzero"/></clipPath><clipPath id="35e47afc2d"><path d="M 8.125 151 L 70 151 L 70 214 L 8.125 214 Z M 8.125 151 " clip-rule="nonzero"/></clipPath><clipPath id="f8044a8b32"><path d="M 14 213 L 64 213 L 64 233.71875 L 14 233.71875 Z M 14 213 " clip-rule="nonzero"/></clipPath><clipPath id="a67f422987"><path d="M 304 151 L 366.625 151 L 366.625 214 L 304 214 Z M 304 151 " clip-rule="nonzero"/></clipPath><clipPath id="044350f053"><path d="M 311 213 L 361 213 L 361 233.71875 L 311 233.71875 Z M 311 213 " clip-rule="nonzero"/></clipPath></defs><g clip-path="url(#e56d1f5e75)"><path fill="#000000" d="M 343.472656 143.292969 C 331.578125 142.078125 319.648438 141.46875 307.691406 141.46875 L 202.328125 141.46875 L 202.328125 146.355469 C 202.183594 147.222656 201.960938 148.070312 201.667969 148.902344 C 201.371094 149.730469 201.003906 150.527344 200.570312 151.292969 C 200.132812 152.058594 199.628906 152.78125 199.066406 153.457031 C 198.5 154.136719 197.882812 154.757812 197.207031 155.328125 C 196.53125 155.894531 195.8125 156.402344 195.046875 156.84375 C 194.28125 157.289062 193.484375 157.660156 192.652344 157.964844 C 191.820312 158.265625 190.972656 158.496094 190.101562 158.648438 C 189.226562 158.804688 188.351562 158.878906 187.464844 158.878906 C 186.582031 158.878906 185.703125 158.804688 184.832031 158.648438 C 183.960938 158.496094 183.109375 158.265625 182.277344 157.964844 C 181.445312 157.660156 180.648438 157.289062 179.882812 156.84375 C 179.117188 156.402344 178.398438 155.894531 177.722656 155.328125 C 177.050781 154.757812 176.429688 154.136719 175.863281 153.457031 C 175.300781 152.78125 174.796875 152.058594 174.363281 151.292969 C 173.925781 150.527344 173.558594 149.730469 173.261719 148.902344 C 172.96875 148.070312 172.746094 147.222656 172.601562 146.355469 L 172.601562 141.46875 L 67.238281 141.46875 C 55.28125 141.46875 43.351562 142.078125 31.457031 143.292969 L 25.429688 143.910156 L 31.457031 144.527344 C 43.355469 145.738281 55.28125 146.339844 67.238281 146.332031 L 109.632812 146.332031 L 109.632812 150.164062 L 113.640625 150.164062 C 113.957031 151.304688 114.410156 152.386719 115 153.414062 L 112.164062 156.230469 L 117.601562 161.640625 L 120.433594 158.820312 C 121.46875 159.410156 122.558594 159.859375 123.703125 160.175781 L 123.703125 164.160156 L 131.410156 164.160156 L 131.410156 160.175781 C 132.554688 159.859375 133.644531 159.410156 134.675781 158.820312 L 137.511719 161.640625 L 142.949219 156.230469 L 140.113281 153.414062 C 140.699219 152.386719 141.152344 151.304688 141.472656 150.164062 L 145.476562 150.164062 L 145.476562 146.332031 L 151.585938 146.332031 L 151.585938 151.550781 L 159.597656 151.550781 C 160.230469 153.832031 161.136719 155.996094 162.316406 158.050781 L 156.640625 163.707031 L 167.519531 174.546875 L 173.191406 168.910156 C 175.257812 170.078125 177.4375 170.980469 179.726562 171.613281 L 179.726562 179.582031 L 195.140625 179.582031 L 195.140625 171.605469 C 197.429688 170.972656 199.609375 170.070312 201.675781 168.898438 L 207.347656 174.539062 L 218.222656 163.699219 L 212.554688 158.066406 C 213.734375 156.011719 214.640625 153.84375 215.273438 151.566406 L 223.289062 151.566406 L 223.289062 146.355469 L 229.394531 146.355469 L 229.394531 150.1875 L 233.398438 150.1875 C 233.71875 151.324219 234.171875 152.410156 234.757812 153.433594 L 231.921875 156.253906 L 237.363281 161.660156 L 240.195312 158.84375 C 241.226562 159.429688 242.316406 159.882812 243.460938 160.195312 L 243.460938 164.179688 L 251.167969 164.179688 L 251.167969 160.195312 C 252.316406 159.882812 253.402344 159.429688 254.4375 158.84375 L 257.269531 161.660156 L 262.707031 156.253906 L 259.871094 153.433594 C 260.460938 152.410156 260.914062 151.324219 261.230469 150.1875 L 265.238281 150.1875 L 265.238281 146.355469 L 307.632812 146.355469 C 319.589844 146.363281 331.519531 145.761719 343.414062 144.550781 L 349.441406 143.933594 Z M 127.566406 153.84375 C 127.070312 153.84375 126.582031 153.796875 126.09375 153.703125 C 125.609375 153.605469 125.140625 153.464844 124.683594 153.277344 C 124.226562 153.085938 123.789062 152.855469 123.378906 152.582031 C 122.96875 152.308594 122.589844 152 122.238281 151.652344 C 121.886719 151.304688 121.574219 150.925781 121.300781 150.515625 C 121.027344 150.109375 120.792969 149.675781 120.605469 149.222656 C 120.414062 148.765625 120.273438 148.296875 120.175781 147.816406 C 120.078125 147.332031 120.03125 146.847656 120.03125 146.355469 L 135.097656 146.355469 C 135.097656 146.847656 135.050781 147.332031 134.953125 147.816406 C 134.855469 148.296875 134.714844 148.765625 134.523438 149.222656 C 134.335938 149.675781 134.105469 150.109375 133.828125 150.515625 C 133.554688 150.925781 133.242188 151.304688 132.890625 151.652344 C 132.542969 152 132.160156 152.308594 131.75 152.582031 C 131.339844 152.855469 130.90625 153.085938 130.449219 153.277344 C 129.992188 153.464844 129.519531 153.605469 129.035156 153.703125 C 128.550781 153.796875 128.058594 153.84375 127.566406 153.84375 Z M 247.367188 153.84375 C 246.871094 153.84375 246.378906 153.796875 245.894531 153.703125 C 245.410156 153.605469 244.9375 153.464844 244.480469 153.277344 C 244.023438 153.085938 243.589844 152.855469 243.179688 152.582031 C 242.769531 152.308594 242.386719 152 242.039062 151.652344 C 241.6875 151.304688 241.375 150.925781 241.101562 150.515625 C 240.828125 150.109375 240.59375 149.675781 240.40625 149.222656 C 240.214844 148.765625 240.074219 148.296875 239.976562 147.816406 C 239.878906 147.332031 239.832031 146.847656 239.832031 146.355469 L 254.898438 146.355469 C 254.898438 146.847656 254.851562 147.332031 254.753906 147.816406 C 254.65625 148.296875 254.515625 148.765625 254.324219 149.222656 C 254.136719 149.675781 253.902344 150.109375 253.628906 150.515625 C 253.355469 150.925781 253.042969 151.304688 252.691406 151.652344 C 252.34375 152 251.960938 152.308594 251.550781 152.582031 C 251.140625 152.855469 250.707031 153.085938 250.25 153.277344 C 249.792969 153.464844 249.320312 153.605469 248.835938 153.703125 C 248.351562 153.796875 247.859375 153.84375 247.367188 153.84375 Z M 247.367188 153.84375 " fill-opacity="1" fill-rule="nonzero"/></g><g clip-path="url(#a9b63f9cad)"><path fill="#000000" d="M 253.980469 143.292969 C 242.085938 142.078125 230.160156 141.46875 218.199219 141.46875 L 112.835938 141.46875 L 112.835938 146.355469 C 112.691406 147.222656 112.472656 148.070312 112.175781 148.902344 C 111.878906 149.730469 111.515625 150.527344 111.078125 151.292969 C 110.640625 152.058594 110.140625 152.78125 109.574219 153.457031 C 109.011719 154.136719 108.390625 154.757812 107.714844 155.328125 C 107.039062 155.894531 106.320312 156.402344 105.554688 156.84375 C 104.789062 157.289062 103.992188 157.660156 103.160156 157.964844 C 102.332031 158.265625 101.480469 158.496094 100.609375 158.648438 C 99.738281 158.804688 98.859375 158.878906 97.972656 158.878906 C 97.089844 158.878906 96.210938 158.804688 95.339844 158.648438 C 94.46875 158.496094 93.617188 158.265625 92.785156 157.964844 C 91.957031 157.660156 91.15625 157.289062 90.394531 156.84375 C 89.628906 156.402344 88.90625 155.894531 88.234375 155.328125 C 87.558594 154.757812 86.9375 154.136719 86.375 153.457031 C 85.808594 152.78125 85.308594 152.058594 84.871094 151.292969 C 84.433594 150.527344 84.066406 149.730469 83.773438 148.902344 C 83.476562 148.070312 83.257812 147.222656 83.113281 146.355469 L 83.113281 141.46875 L -22.253906 141.46875 C -34.210938 141.46875 -46.136719 142.078125 -58.035156 143.292969 L -64.0625 143.910156 L -58.035156 144.527344 C -46.136719 145.738281 -34.210938 146.339844 -22.253906 146.332031 L 20.144531 146.332031 L 20.144531 150.164062 L 24.148438 150.164062 C 24.46875 151.304688 24.921875 152.386719 25.507812 153.414062 L 22.671875 156.230469 L 28.109375 161.640625 L 30.945312 158.820312 C 31.976562 159.410156 33.066406 159.859375 34.210938 160.175781 L 34.210938 164.160156 L 41.917969 164.160156 L 41.917969 160.175781 C 43.0625 159.859375 44.152344 159.410156 45.1875 158.820312 L 48.019531 161.640625 L 53.457031 156.230469 L 50.621094 153.414062 C 51.210938 152.386719 51.664062 151.304688 51.980469 150.164062 L 55.988281 150.164062 L 55.988281 146.332031 L 62.09375 146.332031 L 62.09375 151.550781 L 70.105469 151.550781 C 70.742188 153.832031 71.648438 155.996094 72.828125 158.050781 L 67.152344 163.707031 L 78.03125 174.546875 L 83.699219 168.910156 C 85.765625 170.078125 87.945312 170.980469 90.238281 171.613281 L 90.238281 179.582031 L 105.648438 179.582031 L 105.648438 171.605469 C 107.9375 170.972656 110.117188 170.070312 112.183594 168.898438 L 117.855469 174.539062 L 128.734375 163.699219 L 123.0625 158.066406 C 124.242188 156.011719 125.148438 153.84375 125.78125 151.566406 L 133.796875 151.566406 L 133.796875 146.355469 L 139.902344 146.355469 L 139.902344 150.1875 L 143.910156 150.1875 C 144.226562 151.324219 144.679688 152.410156 145.269531 153.433594 L 142.429688 156.253906 L 147.871094 161.660156 L 150.703125 158.84375 C 151.734375 159.429688 152.824219 159.882812 153.972656 160.195312 L 153.972656 164.179688 L 161.675781 164.179688 L 161.675781 160.195312 C 162.824219 159.882812 163.914062 159.429688 164.945312 158.84375 L 167.777344 161.660156 L 173.21875 156.253906 L 170.378906 153.433594 C 170.96875 152.410156 171.421875 151.324219 171.738281 150.1875 L 175.746094 150.1875 L 175.746094 146.355469 L 218.140625 146.355469 C 230.101562 146.363281 242.027344 145.761719 253.921875 144.550781 L 259.953125 143.933594 Z M 38.074219 153.84375 C 37.578125 153.84375 37.089844 153.796875 36.605469 153.703125 C 36.121094 153.605469 35.648438 153.464844 35.191406 153.277344 C 34.734375 153.085938 34.300781 152.855469 33.890625 152.582031 C 33.476562 152.308594 33.097656 152 32.746094 151.652344 C 32.398438 151.304688 32.085938 150.925781 31.808594 150.515625 C 31.535156 150.109375 31.304688 149.675781 31.113281 149.222656 C 30.925781 148.765625 30.78125 148.296875 30.683594 147.816406 C 30.589844 147.332031 30.539062 146.847656 30.539062 146.355469 L 45.609375 146.355469 C 45.609375 146.847656 45.558594 147.332031 45.460938 147.816406 C 45.367188 148.296875 45.222656 148.765625 45.035156 149.222656 C 44.84375 149.675781 44.613281 150.109375 44.339844 150.515625 C 44.0625 150.925781 43.75 151.304688 43.402344 151.652344 C 43.050781 152 42.671875 152.308594 42.257812 152.582031 C 41.847656 152.855469 41.414062 153.085938 40.957031 153.277344 C 40.5 153.464844 40.027344 153.605469 39.542969 153.703125 C 39.058594 153.796875 38.570312 153.84375 38.074219 153.84375 Z M 157.875 153.84375 C 157.378906 153.84375 156.890625 153.796875 156.40625 153.703125 C 155.917969 153.605469 155.449219 153.464844 154.992188 153.277344 C 154.535156 153.085938 154.101562 152.855469 153.6875 152.582031 C 153.277344 152.308594 152.898438 152 152.546875 151.652344 C 152.199219 151.304688 151.886719 150.925781 151.609375 150.515625 C 151.335938 150.109375 151.105469 149.675781 150.914062 149.222656 C 150.726562 148.765625 150.582031 148.296875 150.484375 147.816406 C 150.390625 147.332031 150.339844 146.847656 150.339844 146.355469 L 165.40625 146.355469 C 165.40625 146.847656 165.359375 147.332031 165.261719 147.816406 C 165.167969 148.296875 165.023438 148.765625 164.835938 149.222656 C 164.644531 149.675781 164.414062 150.109375 164.136719 150.515625 C 163.863281 150.925781 163.550781 151.304688 163.203125 151.652344 C 162.851562 152 162.472656 152.308594 162.058594 152.582031 C 161.648438 152.855469 161.214844 153.085938 160.757812 153.277344 C 160.300781 153.464844 159.828125 153.605469 159.34375 153.703125 C 158.859375 153.796875 158.367188 153.84375 157.875 153.84375 Z M 157.875 153.84375 " fill-opacity="1" fill-rule="nonzero"/></g><g clip-path="url(#9fd630f580)"><path fill="#000000" d="M 343.472656 224.84375 C 331.578125 223.625 319.648438 223.015625 307.691406 223.015625 L 202.328125 223.015625 L 202.328125 227.902344 C 202.183594 228.769531 201.960938 229.621094 201.667969 230.449219 C 201.371094 231.277344 201.003906 232.078125 200.570312 232.839844 C 200.132812 233.605469 199.628906 234.328125 199.066406 235.007812 C 198.5 235.683594 197.882812 236.308594 197.207031 236.875 C 196.53125 237.445312 195.8125 237.949219 195.046875 238.394531 C 194.28125 238.835938 193.484375 239.210938 192.652344 239.511719 C 191.820312 239.816406 190.972656 240.042969 190.101562 240.199219 C 189.226562 240.351562 188.351562 240.429688 187.464844 240.429688 C 186.582031 240.429688 185.703125 240.351562 184.832031 240.199219 C 183.960938 240.042969 183.109375 239.816406 182.277344 239.511719 C 181.445312 239.210938 180.648438 238.835938 179.882812 238.394531 C 179.117188 237.949219 178.398438 237.445312 177.722656 236.875 C 177.050781 236.308594 176.429688 235.683594 175.863281 235.007812 C 175.300781 234.328125 174.796875 233.605469 174.363281 232.839844 C 173.925781 232.078125 173.558594 231.277344 173.261719 230.449219 C 172.96875 229.621094 172.746094 228.769531 172.601562 227.902344 L 172.601562 223.015625 L 67.238281 223.015625 C 55.28125 223.015625 43.351562 223.625 31.457031 224.84375 L 25.429688 225.460938 L 31.457031 226.078125 C 43.355469 227.289062 55.28125 227.886719 67.238281 227.878906 L 109.632812 227.878906 L 109.632812 231.710938 L 113.640625 231.710938 C 113.957031 232.851562 114.410156 233.933594 115 234.960938 L 112.164062 237.777344 L 117.601562 243.1875 L 120.433594 240.371094 C 121.46875 240.957031 122.558594 241.40625 123.703125 241.722656 L 123.703125 245.707031 L 131.410156 245.707031 L 131.410156 241.722656 C 132.554688 241.40625 133.644531 240.957031 134.675781 240.371094 L 137.511719 243.1875 L 142.949219 237.777344 L 140.113281 234.960938 C 140.699219 233.933594 141.152344 232.851562 141.472656 231.710938 L 145.476562 231.710938 L 145.476562 227.878906 L 151.585938 227.878906 L 151.585938 233.101562 L 159.597656 233.101562 C 160.230469 235.378906 161.136719 237.546875 162.316406 239.597656 L 156.640625 245.257812 L 167.519531 256.097656 L 173.191406 250.457031 C 175.257812 251.628906 177.4375 252.527344 179.726562 253.160156 L 179.726562 261.128906 L 195.140625 261.128906 L 195.140625 253.152344 C 197.429688 252.519531 199.609375 251.617188 201.675781 250.449219 L 207.347656 256.085938 L 218.222656 245.246094 L 212.554688 239.613281 C 213.734375 237.558594 214.640625 235.394531 215.273438 233.113281 L 223.289062 233.113281 L 223.289062 227.902344 L 229.394531 227.902344 L 229.394531 231.734375 L 233.398438 231.734375 C 233.71875 232.875 234.171875 233.957031 234.757812 234.984375 L 231.921875 237.800781 L 237.363281 243.210938 L 240.195312 240.394531 C 241.226562 240.980469 242.316406 241.429688 243.460938 241.746094 L 243.460938 245.730469 L 251.167969 245.730469 L 251.167969 241.746094 C 252.316406 241.429688 253.402344 240.980469 254.4375 240.394531 L 257.269531 243.210938 L 262.707031 237.800781 L 259.871094 234.984375 C 260.460938 233.957031 260.914062 232.875 261.230469 231.734375 L 265.238281 231.734375 L 265.238281 227.902344 L 307.632812 227.902344 C 319.589844 227.910156 331.519531 227.308594 343.414062 226.101562 L 349.441406 225.484375 Z M 127.566406 235.394531 C 127.070312 235.394531 126.582031 235.347656 126.09375 235.25 C 125.609375 235.152344 125.140625 235.011719 124.683594 234.824219 C 124.226562 234.636719 123.789062 234.40625 123.378906 234.132812 C 122.96875 233.859375 122.589844 233.546875 122.238281 233.199219 C 121.886719 232.851562 121.574219 232.472656 121.300781 232.066406 C 121.027344 231.65625 120.792969 231.222656 120.605469 230.769531 C 120.414062 230.316406 120.273438 229.847656 120.175781 229.363281 C 120.078125 228.882812 120.03125 228.394531 120.03125 227.902344 L 135.097656 227.902344 C 135.097656 228.394531 135.050781 228.882812 134.953125 229.363281 C 134.855469 229.847656 134.714844 230.316406 134.523438 230.769531 C 134.335938 231.222656 134.105469 231.65625 133.828125 232.066406 C 133.554688 232.472656 133.242188 232.851562 132.890625 233.199219 C 132.542969 233.546875 132.160156 233.859375 131.75 234.132812 C 131.339844 234.40625 130.90625 234.636719 130.449219 234.824219 C 129.992188 235.011719 129.519531 235.152344 129.035156 235.25 C 128.550781 235.347656 128.058594 235.394531 127.566406 235.394531 Z M 247.367188 235.394531 C 246.871094 235.394531 246.378906 235.347656 245.894531 235.25 C 245.410156 235.152344 244.9375 235.011719 244.480469 234.824219 C 244.023438 234.636719 243.589844 234.40625 243.179688 234.132812 C 242.769531 233.859375 242.386719 233.546875 242.039062 233.199219 C 241.6875 232.851562 241.375 232.472656 241.101562 232.066406 C 240.828125 231.65625 240.59375 231.222656 240.40625 230.769531 C 240.214844 230.316406 240.074219 229.847656 239.976562 229.363281 C 239.878906 228.882812 239.832031 228.394531 239.832031 227.902344 L 254.898438 227.902344 C 254.898438 228.394531 254.851562 228.882812 254.753906 229.363281 C 254.65625 229.847656 254.515625 230.316406 254.324219 230.769531 C 254.136719 231.222656 253.902344 231.65625 253.628906 232.066406 C 253.355469 232.472656 253.042969 232.851562 252.691406 233.199219 C 252.34375 233.546875 251.960938 233.859375 251.550781 234.132812 C 251.140625 234.40625 250.707031 234.636719 250.25 234.824219 C 249.792969 235.011719 249.320312 235.152344 248.835938 235.25 C 248.351562 235.347656 247.859375 235.394531 247.367188 235.394531 Z M 247.367188 235.394531 " fill-opacity="1" fill-rule="nonzero"/></g><g clip-path="url(#443b19455c)"><path fill="#000000" d="M 253.980469 224.84375 C 242.085938 223.625 230.160156 223.015625 218.199219 223.015625 L 112.835938 223.015625 L 112.835938 227.902344 C 112.691406 228.769531 112.472656 229.621094 112.175781 230.449219 C 111.878906 231.277344 111.515625 232.078125 111.078125 232.839844 C 110.640625 233.605469 110.140625 234.328125 109.574219 235.007812 C 109.011719 235.683594 108.390625 236.308594 107.714844 236.875 C 107.039062 237.445312 106.320312 237.949219 105.554688 238.394531 C 104.789062 238.835938 103.992188 239.210938 103.160156 239.511719 C 102.332031 239.816406 101.480469 240.042969 100.609375 240.199219 C 99.738281 240.351562 98.859375 240.429688 97.972656 240.429688 C 97.089844 240.429688 96.210938 240.351562 95.339844 240.199219 C 94.46875 240.042969 93.617188 239.816406 92.785156 239.511719 C 91.957031 239.210938 91.15625 238.835938 90.394531 238.394531 C 89.628906 237.949219 88.90625 237.445312 88.234375 236.875 C 87.558594 236.308594 86.9375 235.683594 86.375 235.007812 C 85.808594 234.328125 85.308594 233.605469 84.871094 232.839844 C 84.433594 232.078125 84.066406 231.277344 83.773438 230.449219 C 83.476562 229.621094 83.257812 228.769531 83.113281 227.902344 L 83.113281 223.015625 L -22.253906 223.015625 C -34.210938 223.015625 -46.136719 223.625 -58.035156 224.84375 L -64.0625 225.460938 L -58.035156 226.078125 C -46.136719 227.289062 -34.210938 227.886719 -22.253906 227.878906 L 20.144531 227.878906 L 20.144531 231.710938 L 24.148438 231.710938 C 24.46875 232.851562 24.921875 233.933594 25.507812 234.960938 L 22.671875 237.777344 L 28.109375 243.1875 L 30.945312 240.371094 C 31.976562 240.957031 33.066406 241.40625 34.210938 241.722656 L 34.210938 245.707031 L 41.917969 245.707031 L 41.917969 241.722656 C 43.0625 241.40625 44.152344 240.957031 45.1875 240.371094 L 48.019531 243.1875 L 53.457031 237.777344 L 50.621094 234.960938 C 51.210938 233.933594 51.664062 232.851562 51.980469 231.710938 L 55.988281 231.710938 L 55.988281 227.878906 L 62.09375 227.878906 L 62.09375 233.101562 L 70.105469 233.101562 C 70.742188 235.378906 71.648438 237.546875 72.828125 239.597656 L 67.152344 245.257812 L 78.03125 256.097656 L 83.699219 250.457031 C 85.765625 251.628906 87.945312 252.527344 90.238281 253.160156 L 90.238281 261.128906 L 105.648438 261.128906 L 105.648438 253.152344 C 107.9375 252.519531 110.117188 251.617188 112.183594 250.449219 L 117.855469 256.085938 L 128.734375 245.246094 L 123.0625 239.613281 C 124.242188 237.558594 125.148438 235.394531 125.78125 233.113281 L 133.796875 233.113281 L 133.796875 227.902344 L 139.902344 227.902344 L 139.902344 231.734375 L 143.910156 231.734375 C 144.226562 232.875 144.679688 233.957031 145.269531 234.984375 L 142.429688 237.800781 L 147.871094 243.210938 L 150.703125 240.394531 C 151.734375 240.980469 152.824219 241.429688 153.972656 241.746094 L 153.972656 245.730469 L 161.675781 245.730469 L 161.675781 241.746094 C 162.824219 241.429688 163.914062 240.980469 164.945312 240.394531 L 167.777344 243.210938 L 173.21875 237.800781 L 170.378906 234.984375 C 170.96875 233.957031 171.421875 232.875 171.738281 231.734375 L 175.746094 231.734375 L 175.746094 227.902344 L 218.140625 227.902344 C 230.101562 227.910156 242.027344 227.308594 253.921875 226.101562 L 259.953125 225.484375 Z M 38.074219 235.394531 C 37.578125 235.394531 37.089844 235.347656 36.605469 235.25 C 36.121094 235.152344 35.648438 235.011719 35.191406 234.824219 C 34.734375 234.636719 34.300781 234.40625 33.890625 234.132812 C 33.476562 233.859375 33.097656 233.546875 32.746094 233.199219 C 32.398438 232.851562 32.085938 232.472656 31.808594 232.066406 C 31.535156 231.65625 31.304688 231.222656 31.113281 230.769531 C 30.925781 230.316406 30.78125 229.847656 30.683594 229.363281 C 30.589844 228.882812 30.539062 228.394531 30.539062 227.902344 L 45.609375 227.902344 C 45.609375 228.394531 45.558594 228.882812 45.460938 229.363281 C 45.367188 229.847656 45.222656 230.316406 45.035156 230.769531 C 44.84375 231.222656 44.613281 231.65625 44.339844 232.066406 C 44.0625 232.472656 43.75 232.851562 43.402344 233.199219 C 43.050781 233.546875 42.671875 233.859375 42.257812 234.132812 C 41.847656 234.40625 41.414062 234.636719 40.957031 234.824219 C 40.5 235.011719 40.027344 235.152344 39.542969 235.25 C 39.058594 235.347656 38.570312 235.394531 38.074219 235.394531 Z M 157.875 235.394531 C 157.378906 235.394531 156.890625 235.347656 156.40625 235.25 C 155.917969 235.152344 155.449219 235.011719 154.992188 234.824219 C 154.535156 234.636719 154.101562 234.40625 153.6875 234.132812 C 153.277344 233.859375 152.898438 233.546875 152.546875 233.199219 C 152.199219 232.851562 151.886719 232.472656 151.609375 232.066406 C 151.335938 231.65625 151.105469 231.222656 150.914062 230.769531 C 150.726562 230.316406 150.582031 229.847656 150.484375 229.363281 C 150.390625 228.882812 150.339844 228.394531 150.339844 227.902344 L 165.40625 227.902344 C 165.40625 228.394531 165.359375 228.882812 165.261719 229.363281 C 165.167969 229.847656 165.023438 230.316406 164.835938 230.769531 C 164.644531 231.222656 164.414062 231.65625 164.136719 232.066406 C 163.863281 232.472656 163.550781 232.851562 163.203125 233.199219 C 162.851562 233.546875 162.472656 233.859375 162.058594 234.132812 C 161.648438 234.40625 161.214844 234.636719 160.757812 234.824219 C 160.300781 235.011719 159.828125 235.152344 159.34375 235.25 C 158.859375 235.347656 158.367188 235.394531 157.875 235.394531 Z M 157.875 235.394531 " fill-opacity="1" fill-rule="nonzero"/></g><g clip-path="url(#35e47afc2d)"><path fill="#000000" d="M 24.257812 191.261719 L 33.347656 191.535156 C 33.347656 191.535156 36.746094 191.71875 37.585938 182.199219 C 37.585938 182.199219 38.132812 191.488281 41.449219 191.570312 L 49.328125 191.527344 L 37.148438 163.320312 L 19.820312 201.117188 L 19.152344 202.210938 L 19.308594 202.339844 L 19.035156 202.742188 C 18.679688 203.253906 18.40625 203.828125 18.269531 204.441406 C 18.269531 204.441406 18.269531 204.441406 18.269531 204.449219 C 18.050781 205.5 17.75 207.492188 18.425781 208.324219 C 19.34375 209.457031 22.746094 210.269531 22.746094 210.269531 C 22.746094 210.269531 25.28125 210.953125 24.796875 212.789062 C 24.796875 212.789062 25.023438 213.171875 23.402344 213.464844 L 9 213.628906 C 8.808594 213.628906 8.625 213.558594 8.480469 213.421875 C 8.105469 213.054688 7.785156 212.140625 8.816406 211.574219 C 8.816406 211.574219 9.753906 211.265625 11.898438 209.996094 C 12.546875 209.609375 13.328125 208.726562 13.640625 208.023438 L 38.152344 152.667969 C 38.152344 152.667969 39.179688 150.402344 40.367188 152.667969 C 41.550781 154.933594 62.898438 203.921875 62.898438 203.921875 C 62.898438 203.921875 66.136719 210.460938 69.097656 211.648438 C 69.820312 211.941406 70.101562 212.828125 69.628906 213.464844 C 69.546875 213.574219 69.417969 213.640625 69.289062 213.640625 L 49.390625 213.757812 C 49.390625 213.757812 46.921875 213.109375 50.996094 211.117188 C 50.996094 211.117188 56.226562 209.097656 55.242188 204.3125 C 55.242188 204.3125 53.429688 196.703125 48.632812 195.351562 C 48.632812 195.351562 42.835938 192.546875 40.65625 195.144531 C 40.65625 195.144531 38.160156 197.554688 37.484375 204.476562 C 37.484375 204.476562 37.675781 196.054688 33.402344 193.957031 C 33.402344 193.957031 26.074219 193.195312 20.710938 200.503906 L 18.632812 203.179688 L 18.6875 203.007812 " fill-opacity="1" fill-rule="nonzero"/></g><g clip-path="url(#f8044a8b32)"><path fill="#000000" d="M 14.816406 213.558594 L 16.265625 213.558594 C 16.265625 213.558594 17.113281 232.472656 39.371094 232.59375 C 61.632812 232.710938 62.316406 213.53125 62.316406 213.53125 L 63.820312 213.53125 C 63.820312 213.53125 65.050781 233.632812 39.152344 233.589844 C 13.257812 233.535156 14.816406 213.558594 14.816406 213.558594 Z M 14.816406 213.558594 " fill-opacity="1" fill-rule="nonzero"/></g><g clip-path="url(#a67f422987)"><path fill="#000000" d="M 321.019531 191.261719 L 330.105469 191.535156 C 330.105469 191.535156 333.507812 191.71875 334.34375 182.199219 C 334.34375 182.199219 334.890625 191.488281 338.210938 191.570312 L 346.085938 191.527344 L 333.90625 163.320312 L 316.578125 201.117188 L 315.914062 202.210938 L 316.070312 202.339844 L 315.796875 202.742188 C 315.441406 203.253906 315.167969 203.828125 315.03125 204.441406 C 315.03125 204.441406 315.03125 204.441406 315.03125 204.449219 C 314.8125 205.5 314.507812 207.492188 315.183594 208.324219 C 316.105469 209.457031 319.503906 210.269531 319.503906 210.269531 C 319.503906 210.269531 322.039062 210.953125 321.554688 212.789062 C 321.554688 212.789062 321.785156 213.171875 320.160156 213.464844 L 305.757812 213.628906 C 305.566406 213.628906 305.386719 213.558594 305.238281 213.421875 C 304.867188 213.054688 304.546875 212.140625 305.578125 211.574219 C 305.578125 211.574219 306.515625 211.265625 308.65625 209.996094 C 309.304688 209.609375 310.089844 208.726562 310.398438 208.023438 L 334.910156 152.660156 C 334.910156 152.660156 335.941406 150.394531 337.125 152.660156 C 338.3125 154.925781 359.660156 203.910156 359.660156 203.910156 C 359.660156 203.910156 362.894531 210.453125 365.859375 211.640625 C 366.578125 211.929688 366.859375 212.816406 366.386719 213.457031 C 366.304688 213.566406 366.175781 213.628906 366.050781 213.628906 L 346.148438 213.75 C 346.148438 213.75 343.679688 213.101562 347.753906 211.109375 C 347.753906 211.109375 352.988281 209.089844 352.003906 204.304688 C 352.003906 204.304688 350.1875 196.695312 345.394531 195.34375 C 345.394531 195.34375 339.597656 192.539062 337.417969 195.132812 C 337.417969 195.132812 334.917969 197.546875 334.246094 204.46875 C 334.246094 204.46875 334.4375 196.046875 330.160156 193.945312 C 330.160156 193.945312 322.832031 193.1875 317.472656 200.496094 L 315.394531 203.171875 L 315.449219 202.996094 " fill-opacity="1" fill-rule="nonzero"/></g><g clip-path="url(#044350f053)"><path fill="#000000" d="M 311.582031 213.558594 L 313.03125 213.558594 C 313.03125 213.558594 313.878906 232.472656 336.140625 232.59375 C 358.402344 232.710938 359.085938 213.53125 359.085938 213.53125 L 360.589844 213.53125 C 360.589844 213.53125 361.820312 233.632812 335.921875 233.589844 C 310.023438 233.535156 311.582031 213.558594 311.582031 213.558594 Z M 311.582031 213.558594 " fill-opacity="1" fill-rule="nonzero"/></g><path fill="#000000" d="M 210.453125 172.664062 C 210.453125 172.664062 210.78125 181.46875 203.863281 182.382812 C 203.863281 182.382812 210.417969 183.734375 210.371094 194.285156 C 210.371094 194.285156 210.683594 183.796875 217.046875 182.59375 C 217.046875 182.59375 210.5 182.390625 210.453125 172.664062 Z M 210.453125 172.664062 " fill-opacity="1" fill-rule="nonzero"/><path fill="#000000" d="M 174.65625 161.832031 C 174.65625 161.109375 174.75 160.535156 174.601562 159.664062 C 174.320312 158.03125 172.980469 154.640625 177.320312 154.550781 C 180.839844 154.476562 216.078125 154.550781 216.609375 154.550781 C 216.609375 154.550781 216.609375 154.550781 216.617188 154.550781 C 216.707031 154.558594 217.628906 154.695312 217.683594 156.019531 C 217.71875 156.851562 217.101562 157.628906 216.308594 157.765625 C 215.941406 157.828125 215.476562 157.894531 214.886719 157.941406 C 214.347656 157.984375 213.808594 158.003906 213.269531 157.984375 C 212.734375 157.96875 212.175781 157.929688 211.628906 157.867188 C 211.101562 157.800781 210.472656 157.730469 209.863281 157.65625 C 208.742188 157.519531 203.125 157.464844 201.996094 157.464844 L 184.484375 157.5 C 183.464844 157.5 182.625 158.359375 182.617188 159.417969 L 182.46875 178.007812 C 182.46875 178.117188 182.550781 178.207031 182.660156 178.207031 L 209.570312 178.328125 C 209.707031 178.328125 209.796875 178.472656 209.742188 178.609375 C 209.5625 179.019531 209.152344 179.796875 208.53125 180.308594 C 207.691406 180.992188 184.984375 180.273438 182.652344 180.199219 C 182.542969 180.199219 182.460938 180.28125 182.460938 180.390625 L 182.441406 184.785156 C 182.441406 184.894531 182.523438 184.984375 182.632812 184.984375 L 208.230469 184.949219 C 208.230469 184.949219 208.304688 184.957031 208.332031 184.976562 C 208.53125 185.113281 209.304688 185.726562 209.671875 186.820312 C 209.714844 186.949219 209.617188 187.078125 209.488281 187.078125 L 182.617188 186.957031 C 182.507812 186.957031 182.425781 187.050781 182.425781 187.148438 L 182.40625 208.03125 C 182.40625 208.03125 182.105469 210.425781 185.640625 210.359375 L 216.664062 210.359375 C 218.003906 210.359375 218.824219 211.929688 218.046875 213.054688 C 218.039062 213.074219 218.019531 213.089844 218.011719 213.109375 C 217.820312 213.375 217.511719 213.519531 217.191406 213.519531 L 177.375 213.027344 C 177.375 213.027344 178.851562 213.046875 178.832031 213.054688 C 178.496094 213.128906 174.382812 213.949219 174.273438 208.441406 C 174.164062 203.335938 174.558594 169.355469 174.640625 161.847656 Z M 174.65625 161.832031 " fill-opacity="1" fill-rule="nonzero"/><path fill="#000000" d="M 174.273438 206.351562 C 174.273438 206.351562 174.027344 209.097656 173.574219 210.230469 C 173.371094 210.726562 173.355469 211.292969 173.382812 211.765625 C 173.4375 212.496094 174.019531 212.992188 174.730469 213.117188 C 175.339844 213.226562 179.597656 213.183594 182.042969 213.0625 " fill-opacity="1" fill-rule="nonzero"/><path fill="#000000" d="M 212.359375 157.199219 L 217.675781 156.074219 L 217.847656 159.097656 C 217.847656 159.097656 217.574219 161.355469 215.550781 159.914062 C 215.550781 159.914062 214.53125 158.796875 213.589844 157.996094 C 213.117188 157.59375 212.660156 157.261719 212.359375 157.199219 Z M 212.359375 157.199219 " fill-opacity="1" fill-rule="nonzero"/><path fill="#000000" d="M 211.3125 210.371094 L 218.367188 212.1875 L 218.585938 208.871094 C 218.632812 208.359375 218.457031 207.828125 218.074219 207.5 C 217.691406 207.171875 216.609375 207.070312 216.261719 207.828125 C 216.261719 207.828125 215.53125 210.414062 211.3125 210.371094 Z M 211.3125 210.371094 " fill-opacity="1" fill-rule="nonzero"/><path fill="#000000" d="M 209.351562 157.621094 C 209.351562 157.621094 213.425781 157.902344 214.921875 159.253906 C 216.417969 160.605469 214.601562 157.519531 214.601562 157.519531 Z M 209.351562 157.621094 " fill-opacity="1" fill-rule="nonzero"/><path fill="#000000" d="M 71.886719 193.808594 C 72.242188 193.808594 72.542969 194.054688 72.617188 194.410156 C 73.136719 196.921875 75.425781 206.476562 80.300781 208.90625 C 80.300781 208.90625 84.113281 211.019531 90.609375 210.414062 C 90.839844 210.398438 91.078125 210.378906 91.304688 210.386719 C 93.402344 210.46875 105.761719 210.453125 107.21875 199.207031 C 107.21875 199.207031 108.84375 190.730469 96.410156 186.921875 C 96.382812 186.921875 96.363281 186.914062 96.34375 186.902344 C 95.671875 186.792969 84.605469 185.03125 80.859375 182.8125 C 80.859375 182.8125 70.792969 179.09375 70.839844 165.785156 C 70.839844 165.785156 70.476562 154.304688 83.390625 152.210938 C 83.410156 152.210938 83.417969 152.210938 83.4375 152.203125 C 84.011719 152.039062 96.773438 148.566406 109.199219 155.648438 C 109.480469 155.8125 109.636719 156.148438 109.570312 156.476562 C 109.398438 157.335938 109.132812 159.082031 109.296875 160.878906 C 109.351562 161.464844 108.933594 161.976562 108.367188 161.996094 L 108.324219 161.996094 C 107.96875 162.003906 107.695312 161.832031 107.574219 161.546875 C 107.011719 160.222656 104.96875 156.46875 99.753906 155.582031 C 99.753906 155.582031 88.132812 151.828125 79.65625 158.523438 C 79.628906 158.542969 79.609375 158.5625 79.589844 158.578125 C 78.996094 159.191406 69.527344 169.382812 89.324219 176.0625 C 89.34375 176.0625 89.363281 176.070312 89.378906 176.078125 C 89.664062 176.207031 91.960938 177.441406 99.515625 177.816406 C 101.816406 177.925781 105.261719 179.140625 107.09375 180.582031 C 107.136719 180.621094 106.726562 180.316406 107.09375 180.582031 C 110.511719 183.121094 112.761719 186.402344 113.117188 188.117188 C 113.730469 191.105469 113.894531 194.136719 114.003906 196.578125 C 114.292969 203.371094 110.191406 209.648438 103.882812 211.601562 C 103.648438 211.675781 103.402344 211.75 103.15625 211.8125 C 94.167969 214.195312 86.425781 213.640625 86.425781 213.640625 C 86.425781 213.640625 75.6875 213.886719 71.050781 209.472656 C 70.867188 209.300781 70.792969 208.878906 70.59375 207.921875 L 71.160156 194.539062 C 71.167969 194.121094 71.503906 193.789062 71.90625 193.789062 Z M 71.886719 193.808594 " fill-opacity="1" fill-rule="nonzero"/><path fill="#000000" d="M 99.746094 155.59375 C 99.746094 155.59375 102.050781 155.472656 103.820312 157.144531 C 103.820312 157.144531 100.335938 155.773438 96.246094 157.996094 C 96.246094 157.996094 85.515625 163.886719 91.394531 177.257812 L 89.40625 176.78125 C 89.40625 176.78125 86.316406 169.90625 89.070312 163.777344 C 89.070312 163.777344 91.503906 157.191406 99.734375 155.601562 Z M 99.746094 155.59375 " fill-opacity="1" fill-rule="nonzero"/><path fill="#000000" d="M 79.992188 209.015625 C 79.992188 209.015625 86.417969 210.808594 93.757812 205.179688 C 93.757812 205.179688 99.480469 201.410156 97.894531 194.960938 C 97.894531 194.960938 95.808594 186.886719 94.277344 185.933594 L 96.371094 186.914062 L 98.742188 193.113281 C 98.742188 193.113281 100.328125 197.917969 98.933594 200.914062 C 97.539062 203.910156 96.574219 204.652344 96.574219 204.652344 C 96.574219 204.652344 93.730469 207.636719 90.710938 208.816406 C 90.710938 208.816406 87.019531 210.425781 85.222656 210.523438 C 83.429688 210.625 79.984375 209.007812 79.984375 209.007812 Z M 79.992188 209.015625 " fill-opacity="1" fill-rule="nonzero"/><path fill="#000000" d="M 71.804688 178.894531 C 71.804688 178.894531 72.132812 187.699219 65.214844 188.613281 C 65.214844 188.613281 71.769531 189.964844 71.722656 200.511719 C 71.722656 200.511719 72.035156 190.027344 78.394531 188.820312 C 78.394531 188.820312 71.851562 188.621094 71.804688 178.894531 Z M 71.804688 178.894531 " fill-opacity="1" fill-rule="nonzero"/><path fill="#000000" d="M 70.59375 207.566406 C 70.59375 207.566406 70.429688 209.144531 71.175781 209.628906 C 71.925781 210.113281 70.59375 207.566406 70.59375 207.566406 Z M 70.59375 207.566406 " fill-opacity="1" fill-rule="nonzero"/><path fill="#000000" d="M 73.253906 193.542969 C 73.253906 193.542969 72.691406 194.757812 72.816406 195.296875 C 72.945312 195.835938 72.335938 194.59375 72.335938 194.59375 Z M 73.253906 193.542969 " fill-opacity="1" fill-rule="nonzero"/><path fill="#000000" d="M 100.683594 177.960938 C 100.683594 177.960938 115.523438 177.761719 114.003906 198.238281 Z M 100.683594 177.960938 " fill-opacity="1" fill-rule="nonzero"/><path fill="#000000" d="M 120.59375 147.992188 C 120.59375 147.992188 120.921875 156.796875 114.003906 157.710938 C 114.003906 157.710938 120.554688 159.0625 120.511719 169.613281 C 120.511719 169.613281 120.820312 159.125 127.183594 157.921875 C 127.183594 157.921875 120.636719 157.71875 120.59375 147.992188 Z M 120.59375 147.992188 " fill-opacity="1" fill-rule="nonzero"/><path fill="#000000" d="M 163.453125 148.402344 C 163.453125 148.402344 163.78125 157.207031 156.863281 158.121094 C 156.863281 158.121094 163.417969 159.472656 163.371094 170.023438 C 163.371094 170.023438 163.683594 159.539062 170.046875 158.332031 C 170.046875 158.332031 163.5 158.132812 163.453125 148.402344 Z M 163.453125 148.402344 " fill-opacity="1" fill-rule="nonzero"/><path fill="#000000" d="M 129.980469 213.308594 L 151.339844 213.484375 C 151.09375 213.4375 156.042969 213.613281 153.070312 211.21875 C 152.398438 210.671875 151.53125 210.441406 150.773438 210.023438 C 149.269531 209.191406 145.449219 207.21875 145.433594 199.984375 C 145.40625 191.023438 145.515625 162.40625 145.515625 162.40625 C 145.515625 162.40625 145.175781 156.789062 149.890625 156.726562 L 160.347656 156.6875 C 160.347656 156.6875 162.707031 155.355469 162.644531 153.730469 L 121.257812 153.546875 C 121.257812 153.546875 122.378906 156.441406 123.308594 156.449219 L 133.398438 156.578125 C 133.398438 156.578125 137.402344 156.503906 137.949219 161.238281 L 137.792969 200.066406 C 137.792969 200.066406 137.464844 208.789062 131.976562 210.453125 C 127.320312 211.867188 129.644531 213.320312 130 213.320312 Z M 129.980469 213.308594 " fill-opacity="1" fill-rule="nonzero"/><path fill="#000000" d="M 121.769531 160.339844 L 161.785156 160.339844 L 161.785156 161.621094 L 121.769531 161.621094 Z M 121.769531 160.339844 " fill-opacity="1" fill-rule="nonzero"/><path fill="#000000" d="M 278.328125 210.925781 C 276.542969 209.519531 274.992188 207.820312 273.679688 205.9375 L 268.628906 198.703125 L 259.5625 186.027344 C 259.5625 186.027344 271.8125 181.367188 273.417969 172.945312 C 273.871094 170.542969 273.699219 166.726562 273.390625 164.972656 C 272.257812 158.671875 267.792969 156.140625 263.371094 154.90625 C 262.222656 154.585938 260.5 154.515625 259.195312 154.332031 C 255.074219 153.757812 228.09375 154.074219 228.09375 154.074219 C 228.09375 154.074219 226.828125 154.925781 229.386719 155.894531 C 231.949219 156.863281 233.773438 156.570312 233.28125 165.722656 C 232.796875 174.882812 232.953125 208.6875 232.953125 208.6875 C 232.953125 208.6875 232.769531 210.105469 230.199219 211.320312 C 227.628906 212.535156 227.335938 213.074219 227.335938 213.074219 C 227.335938 213.074219 227.019531 213.585938 228.742188 213.484375 C 230.464844 213.382812 242.597656 213.308594 242.597656 213.308594 L 244.238281 213.335938 C 244.238281 213.335938 246.351562 213.59375 241.3125 210.3125 C 241.3125 210.3125 241 209.015625 240.984375 207.539062 C 240.972656 206.058594 240.753906 177.285156 240.753906 177.285156 C 240.753906 177.285156 240.855469 175.789062 242.496094 177.570312 C 243.800781 178.976562 250.164062 185.992188 252.75 188.839844 C 253.488281 189.652344 254.164062 190.503906 254.785156 191.414062 C 256.945312 194.578125 262.132812 202.222656 262.625 203.4375 C 263.253906 204.972656 267.21875 212.441406 267.21875 212.441406 C 267.21875 212.441406 267.335938 213.511719 271.011719 213.484375 C 275.101562 213.449219 278.875 213.347656 278.875 213.347656 C 278.875 213.347656 281.519531 213.421875 278.347656 210.925781 Z M 258.046875 182.902344 C 258.046875 182.902344 240.007812 164.816406 241.457031 159.5 C 242.898438 154.183594 267.800781 159.226562 265.703125 169.121094 C 263.609375 179.011719 258.046875 182.902344 258.046875 182.902344 Z M 258.046875 182.902344 " fill-opacity="1" fill-rule="nonzero"/><path fill="#000000" d="M 257.28125 173.714844 C 257.28125 173.714844 257.710938 185.132812 248.730469 186.308594 C 248.730469 186.308594 257.234375 188.0625 257.171875 201.738281 C 257.171875 201.738281 257.582031 188.144531 265.832031 186.585938 C 265.832031 186.585938 257.34375 186.320312 257.28125 173.714844 Z M 257.28125 173.714844 " fill-opacity="1" fill-rule="nonzero"/><path fill="#000000" d="M 227.375 213.308594 C 227.375 213.308594 226.84375 212.496094 227.8125 211.75 C 228.777344 211 232.53125 209.75 232.953125 208.707031 C 233.371094 207.664062 233.699219 211.832031 233.699219 211.832031 Z M 227.375 213.308594 " fill-opacity="1" fill-rule="nonzero"/><path fill="#000000" d="M 244.65625 213.21875 C 244.65625 213.21875 244.949219 212.671875 244.546875 212.261719 C 244.144531 211.847656 241.136719 210.09375 241.054688 208.824219 C 240.972656 207.554688 239.5625 212.207031 239.5625 212.207031 Z M 244.65625 213.21875 " fill-opacity="1" fill-rule="nonzero"/><path fill="#000000" d="M 228.113281 155.226562 C 228.113281 155.226562 227.253906 154.625 228.09375 154.09375 L 228.832031 154.09375 C 228.832031 154.09375 228.113281 155.226562 228.113281 155.226562 Z M 228.113281 155.226562 " fill-opacity="1" fill-rule="nonzero"/><path fill="#000000" d="M 292.496094 172.808594 L 294.621094 172.808594 C 296.25 172.828125 297.5625 174.023438 297.5625 175.496094 L 297.589844 211.074219 C 297.589844 212.617188 296.160156 213.839844 294.457031 213.75 L 292.140625 213.628906 C 290.570312 213.546875 289.351562 212.371094 289.351562 210.945312 L 289.523438 175.476562 C 289.523438 173.996094 290.863281 172.800781 292.496094 172.808594 Z M 292.496094 172.808594 " fill-opacity="1" fill-rule="nonzero"/><path fill="#000000" d="M 293.472656 146.101562 C 293.472656 146.101562 293.800781 154.722656 286.878906 155.621094 C 286.878906 155.621094 293.433594 156.945312 293.390625 167.273438 C 293.390625 167.273438 293.699219 157.007812 300.0625 155.828125 C 300.0625 155.828125 293.515625 155.628906 293.472656 146.109375 Z M 293.472656 146.101562 " fill-opacity="1" fill-rule="nonzero"/><path fill="#000000" d="M 286.550781 212.953125 C 286.523438 213.394531 286.878906 213.765625 287.308594 213.765625 L 300.035156 213.765625 C 300.035156 213.765625 302.113281 213.585938 300.144531 211.445312 C 298.175781 209.308594 297.574219 206.632812 297.574219 206.632812 L 289.359375 206.597656 C 289.359375 206.597656 289.050781 210.351562 287.480469 211.539062 C 286.789062 212.066406 286.570312 212.570312 286.542969 212.953125 Z M 286.550781 212.953125 " fill-opacity="1" fill-rule="nonzero"/><path fill="#000000" d="M 300.0625 170.070312 C 300.089844 169.660156 299.75 169.3125 299.351562 169.3125 L 287.464844 169.3125 C 287.464844 169.3125 285.523438 169.484375 287.363281 171.476562 C 289.203125 173.46875 289.761719 175.96875 289.761719 175.96875 L 297.425781 176.007812 C 297.425781 176.007812 297.71875 172.5 299.175781 171.394531 C 299.824219 170.902344 300.023438 170.433594 300.050781 170.070312 Z M 300.0625 170.070312 " fill-opacity="1" fill-rule="nonzero"/></svg>